HIERARCHY
ROOT Hips
{
	OFFSET 0.000000 0.000000 0.000000
	CHANNELS 6 Xposition Yposition Zposition Yrotation Xrotation Zrotation
	JOINT Chest
	{
		OFFSET 0.000000 -0.009281 11.569106
		CHANNELS 3 Yrotation Xrotation Zrotation
		JOINT Chest2
		{
			OFFSET -0.000000 0.016865 9.269641
			CHANNELS 3 Yrotation Xrotation Zrotation
			JOINT Chest3
			{
				OFFSET -0.000000 0.000001 8.374491
				CHANNELS 3 Yrotation Xrotation Zrotation
				JOINT Chest4
				{
					OFFSET -0.000000 0.000001 8.374493
					CHANNELS 3 Yrotation Xrotation Zrotation
					JOINT Neck
					{
						OFFSET -0.000000 0.000002 12.152554
						CHANNELS 3 Yrotation Xrotation Zrotation
						JOINT Head
						{
							OFFSET -0.000000 0.040101 7.802319
							CHANNELS 3 Yrotation Xrotation Zrotation
							End Site
							{
								OFFSET -0.000000 0.020947 14.853096
							}
						}
					}
					JOINT RightCollar
					{
						OFFSET 2.894404 0.000001 6.791374
						CHANNELS 3 Yrotation Xrotation Zrotation
						JOINT RightShoulder
						{
							OFFSET 13.574684 0.000001 0.000000
							CHANNELS 3 Yrotation Xrotation Zrotation
							JOINT RightElbow
							{
								OFFSET 23.923903 0.000002 0.000000
								CHANNELS 3 Yrotation Xrotation Zrotation
								JOINT RightWrist
								{
									OFFSET 19.846718 0.012767 0.000000
									CHANNELS 3 Yrotation Xrotation Zrotation
									End Site
									{
										OFFSET 14.973145 0.000001 0.000000
									}
								}
							}
						}
					}
					JOINT LeftCollar
					{
						OFFSET -2.894404 0.000001 6.791374
						CHANNELS 3 Yrotation Xrotation Zrotation
						JOINT LeftShoulder
						{
							OFFSET -13.574684 -0.000001 0.000000
							CHANNELS 3 Yrotation Xrotation Zrotation
							JOINT LeftElbow
							{
								OFFSET -23.923903 -0.000002 0.000000
								CHANNELS 3 Yrotation Xrotation Zrotation
								JOINT LeftWrist
								{
									OFFSET -19.846718 0.012763 0.000000
									CHANNELS 3 Yrotation Xrotation Zrotation
									End Site
									{
										OFFSET -14.973145 -0.000001 0.000000
									}
								}
							}
						}
					}
				}
			}
		}
	}
	JOINT RightHip
	{
		OFFSET 9.469263 0.004643 0.045487
		CHANNELS 3 Yrotation Xrotation Zrotation
		JOINT RightKnee
		{
			OFFSET 0.000000 0.002661 -40.478676
			CHANNELS 3 Yrotation Xrotation Zrotation
			JOINT RightAnkle
			{
				OFFSET 0.000000 0.049106 -35.224068
				CHANNELS 3 Yrotation Xrotation Zrotation
				JOINT RightToe
				{
					OFFSET -0.000001 12.539529 -6.151390
					CHANNELS 3 Yrotation Xrotation Zrotation
					End Site
					{
						OFFSET -0.000001 5.044994 -1.291870
					}
				}
			}
		}
	}
	JOINT LeftHip
	{
		OFFSET -9.469263 0.004641 0.045487
		CHANNELS 3 Yrotation Xrotation Zrotation
		JOINT LeftKnee
		{
			OFFSET 0.000000 0.002661 -40.478676
			CHANNELS 3 Yrotation Xrotation Zrotation
			JOINT LeftAnkle
			{
				OFFSET 0.000000 0.049106 -35.224068
				CHANNELS 3 Yrotation Xrotation Zrotation
				JOINT LeftToe
				{
					OFFSET -0.000001 12.539529 -6.151390
					CHANNELS 3 Yrotation Xrotation Zrotation
					End Site
					{
						OFFSET -0.000001 5.044994 -1.291870
					}
				}
			}
		}
	}
}
MOTION
Frames: 15
Frame Time: 0.016667
9.869756 7.097873 83.116692 -4.672412 -1.089245 -103.936881 -0.675863 -2.854857 1.690492 -0.284619 -1.270306 0.745222 -0.284619 -1.270306 0.745223 -0.211906 -0.953079 0.558300 2.885037 -23.902372 -7.669417 3.233523 -8.231528 -13.038782 9.480196 4.120248 -6.541148 58.374915 47.424394 27.530278 42.125591 33.538759 52.496527 -10.245418 41.648752 11.756744 -8.594138 -4.244192 -5.247166 -51.867207 30.107351 -19.095416 -34.599676 13.369381 -37.119684 -25.526107 37.180801 -5.208214 -0.789331 -5.517837 -2.885215 2.067033 -3.529188 -11.631687 -0.920356 3.955759 1.904290 -0.151472 -0.061296 -0.007986 -0.790877 -6.498621 0.712264 0.572160 -1.063074 -1.263453 -0.724345 2.909159 0.049835 0.002488 0.000558 0.011853 
9.873948 7.074453 83.113304 -4.650919 -1.098863 -104.129430 -0.682290 -2.819469 1.721790 -0.288653 -1.255459 0.761612 -0.288653 -1.255459 0.761612 -0.214917 -0.941956 0.570593 2.878350 -23.921976 -7.683802 3.219557 -8.268925 -13.066207 9.520123 3.963884 -6.439080 58.648574 46.815664 27.741824 42.232146 32.901359 52.783893 -12.323450 41.770015 12.716383 -8.584626 -4.233860 -5.312838 -51.963898 30.569666 -19.275088 -34.547998 13.959784 -37.590376 -25.174844 37.385563 -5.448536 -0.757538 -5.534905 -2.831250 2.016868 -3.419868 -11.560003 -0.880666 3.899564 1.958238 -0.155007 -0.065624 -0.008476 -0.782305 -6.527395 0.876179 0.572834 -1.023146 -1.260645 -0.739812 2.916625 0.067784 0.002567 -0.002125 0.012044 
9.875770 7.048407 83.109528 -4.637914 -1.109793 -104.343762 -0.692523 -2.794186 1.754641 -0.294739 -1.244407 0.779488 -0.294739 -1.244407 0.779490 -0.219458 -0.933683 0.583994 2.861870 -23.940766 -7.654676 3.198846 -8.303973 -13.017978 9.558683 3.861288 -6.348658 58.750630 46.033163 27.616453 42.247671 32.072205 52.863748 -14.259533 41.816474 13.470286 -8.584919 -4.227751 -5.390898 -52.172106 31.057850 -19.468266 -34.464909 14.694068 -38.134503 -24.849099 37.586090 -5.698717 -0.726731 -5.551778 -2.760971 1.966198 -3.321462 -11.487670 -0.847269 3.847829 2.034335 -0.153742 -0.071865 -0.008837 -0.778287 -6.562818 1.044774 0.579714 -0.989615 -1.245158 -0.757938 2.930658 0.092782 0.000628 -0.005233 0.011588 
9.876994 7.020295 83.105919 -4.634379 -1.123395 -104.584178 -0.708885 -2.780027 1.792264 -0.303549 -1.238126 0.800252 -0.303549 -1.238127 0.800252 -0.226032 -0.928994 0.599549 2.833317 -23.960724 -7.578623 3.168285 -8.340405 -12.888538 9.599917 3.831055 -6.270388 58.679508 45.080065 27.162073 42.098100 31.039655 52.696562 -15.855541 42.005414 13.984945 -8.603548 -4.183010 -5.489718 -52.474516 31.523874 -19.641469 -34.372848 15.628204 -38.766504 -24.694366 37.802587 -6.014305 -0.701131 -5.563412 -2.670169 1.927568 -3.249121 -11.412737 -0.825055 3.807444 2.099141 -0.149919 -0.077145 -0.010173 -0.776747 -6.605383 1.203043 0.587256 -0.968670 -1.191773 -0.774087 2.955720 0.118676 -0.003820 -0.007798 0.011722 
9.874730 6.993487 83.102539 -4.637685 -1.137488 -104.852884 -0.730178 -2.769445 1.832342 -0.314590 -1.234180 0.821316 -0.314591 -1.234180 0.821316 -0.234276 -0.926060 0.615328 2.790032 -23.988015 -7.450916 3.124756 -8.389694 -12.670021 9.645879 3.702412 -6.194795 58.550513 44.087174 26.601980 41.663959 29.801437 52.141220 -16.974996 42.243993 14.138596 -8.626113 -4.122194 -5.576002 -52.902202 31.970705 -19.819162 -34.379214 16.778189 -39.480372 -24.634985 38.095056 -6.446836 -0.696349 -5.547771 -2.555212 1.915757 -3.235760 -11.297787 -0.817682 3.789908 2.145559 -0.142640 -0.080157 -0.012192 -0.781981 -6.648767 1.355236 0.597213 -0.961539 -1.107657 -0.784958 2.988116 0.146676 -0.012086 -0.008222 0.011883 
9.862069 6.969469 83.099457 -4.652806 -1.155563 -105.143215 -0.752489 -2.757917 1.870949 -0.326751 -1.230983 0.841064 -0.326752 -1.230983 0.841064 -0.243360 -0.923690 0.630113 2.730221 -24.026037 -7.268987 3.065894 -8.458249 -12.358304 9.710927 3.577881 -6.117121 58.250981 43.082251 25.840675 41.085036 28.521886 51.233679 -16.839859 42.010807 13.797829 -8.648809 -4.115568 -5.660634 -53.449864 32.458958 -20.012232 -34.506000 18.100444 -40.269426 -24.599836 38.539680 -7.047519 -0.694059 -5.507686 -2.417774 1.911921 -3.276895 -11.140799 -0.827069 3.785999 2.130871 -0.129727 -0.079656 -0.014417 -0.788732 -6.691714 1.486718 0.605762 -0.970626 -0.997829 -0.790436 3.026370 0.188549 -0.021810 -0.009437 0.013457 
9.841129 6.946480 83.096436 -4.681287 -1.178198 -105.446728 -0.775487 -2.747422 1.905674 -0.339638 -1.227432 0.858921 -0.339638 -1.227432 0.858920 -0.252994 -0.921054 0.643484 2.650368 -24.073680 -7.028446 2.986313 -8.544186 -11.946398 9.803203 3.483879 -6.076908 57.846368 42.093281 24.936833 40.464923 27.214045 50.021915 -15.249432 41.069248 12.604815 -8.691587 -4.150596 -5.758630 -54.086489 32.995971 -20.184840 -34.668329 19.480955 -41.093697 -24.589444 39.216883 -7.852190 -0.692601 -5.454028 -2.272303 1.904029 -3.359327 -10.960853 -0.841482 3.792441 2.112847 -0.111955 -0.078841 -0.015160 -0.797720 -6.740065 1.601708 0.616776 -0.989501 -0.888541 -0.788774 3.069881 0.259574 -0.035377 -0.012486 0.013091 
9.817986 6.925019 83.092796 -4.718292 -1.210033 -105.754196 -0.791703 -2.731684 1.934442 -0.348705 -1.220150 0.874520 -0.348705 -1.220150 0.874521 -0.259773 -0.915615 0.655170 2.548802 -24.135004 -6.726988 2.883752 -8.655184 -11.430604 9.862207 3.300534 -6.142519 57.414919 41.171342 24.038842 39.779599 25.783035 48.558588 -13.289351 39.418654 9.820180 -8.766682 -4.216483 -5.864096 -54.789848 33.572637 -20.343000 -34.819194 20.876133 -41.890742 -24.570332 40.061395 -8.855877 -0.683265 -5.400719 -2.151084 1.897862 -3.460601 -10.766383 -0.867914 3.805959 2.092603 -0.090719 -0.078244 -0.016368 -0.805115 -6.793180 1.698415 0.632678 -1.020347 -0.786398 -0.773424 3.125877 0.357937 -0.056808 -0.019287 0.012758 
9.794395 6.905108 83.088875 -4.763945 -1.245981 -106.056329 -0.795447 -2.711685 1.943130 -0.352560 -1.210632 0.881678 -0.352560 -1.210632 0.881678 -0.262663 -0.908485 0.660536 2.415783 -24.203621 -6.361101 2.740999 -8.780026 -10.807145 9.861194 3.029526 -6.258981 56.920064 40.360151 23.142045 39.185007 24.461158 47.034568 -10.354565 36.761687 5.156755 -8.876972 -4.349858 -5.935285 -55.581528 34.226232 -20.560222 -35.023120 22.322494 -42.668342 -24.488624 40.978659 -9.873053 -0.675091 -5.353595 -2.038341 1.890639 -3.568927 -10.575828 -0.897258 3.821139 2.093892 -0.067605 -0.078483 -0.016240 -0.813076 -6.849364 1.778480 0.648317 -1.063543 -0.688610 -0.741723 3.191948 0.467134 -0.084560 -0.027472 0.010702 
9.773855 6.887593 83.085869 -4.818128 -1.285779 -106.347910 -0.801475 -2.697056 1.957289 -0.357039 -1.203071 0.891558 -0.357039 -1.203071 0.891559 -0.266015 -0.902828 0.667942 2.277485 -24.274048 -5.945459 2.600774 -8.907354 -10.095790 9.818173 2.823446 -6.457744 56.419091 39.415710 22.259959 39.230151 23.647968 45.627795 -5.407495 32.667927 -0.305346 -9.003111 -4.472582 -6.008053 -56.442545 34.921381 -20.826179 -35.355518 23.851273 -43.425021 -24.322792 41.915512 -10.916512 -0.667054 -5.320856 -1.933972 1.890230 -3.674477 -10.385956 -0.933519 3.836076 2.084241 -0.047025 -0.077703 -0.017613 -0.818115 -6.907927 1.840455 0.655334 -1.123493 -0.580059 -0.693794 3.266709 0.570696 -0.113816 -0.032625 0.009497 
9.757230 6.866372 83.084595 -4.889677 -1.340340 -106.627859 -0.811498 -2.701276 1.982635 -0.366878 -1.203303 0.907558 -0.366878 -1.203303 0.907559 -0.273362 -0.903024 0.679922 2.138461 -24.334535 -5.475271 2.471635 -9.015230 -9.286884 9.754984 2.608883 -6.722525 56.214185 38.328798 21.664532 39.638822 23.306550 44.345334 0.981823 28.911371 -5.018321 -9.155779 -4.568267 -6.128632 -57.289322 35.713314 -21.135698 -35.781981 25.370651 -44.027649 -24.140438 43.157664 -12.304260 -0.648687 -5.312957 -1.833383 1.891025 -3.777645 -10.207650 -0.973160 3.864471 2.087632 -0.028079 -0.090404 -0.018697 -0.810935 -6.986043 1.887746 0.661537 -1.199625 -0.475328 -0.645386 3.354770 0.677077 -0.138710 -0.034907 0.007843 
9.738729 6.848418 83.084969 -4.977536 -1.386822 -106.903683 -0.839403 -2.721931 2.041538 -0.380647 -1.213043 0.936332 -0.380647 -1.213043 0.936332 -0.283617 -0.910369 0.701469 2.001155 -24.380837 -4.960039 2.355491 -9.096328 -8.396891 9.705578 2.313736 -6.979650 56.326296 37.217581 21.234209 40.164658 23.099367 43.599877 6.732898 26.414334 -9.118690 -9.276612 -4.785137 -6.314287 -58.130114 36.649887 -21.618111 -36.286893 26.829630 -44.375469 -23.840120 45.302592 -14.235771 -0.647311 -5.304156 -1.724304 1.897205 -3.909974 -10.039761 -1.017623 3.887856 2.102119 -0.008296 -0.084710 -0.018610 -0.817691 -7.066403 1.929484 0.666489 -1.284487 -0.390039 -0.593527 3.432406 0.810231 -0.158708 -0.028285 0.005496 
9.711445 6.836955 83.086136 -5.068695 -1.421198 -107.161795 -0.866440 -2.755491 2.126140 -0.394939 -1.229223 0.975133 -0.394939 -1.229223 0.975135 -0.294233 -0.922550 0.730528 1.851028 -24.417375 -4.406044 2.225166 -9.160057 -7.440701 9.792269 1.916845 -6.949022 56.521274 36.579037 20.735505 40.094385 22.487192 43.130589 11.408590 23.688368 -11.459010 -9.291883 -5.001113 -6.375725 -59.023995 37.428105 -22.252970 -36.895333 28.195386 -44.570878 -22.929018 48.518047 -16.660727 -0.660187 -5.266522 -1.593456 1.906601 -4.090943 -9.895561 -1.065522 3.931279 2.093358 0.013357 -0.080283 -0.018929 -0.835405 -7.129472 1.955473 0.669095 -1.385056 -0.304585 -0.543388 3.504860 0.934015 -0.171705 -0.018014 0.003293 
9.677040 6.830636 83.087112 -5.155399 -1.446879 -107.377623 -0.877624 -2.795300 2.215164 -0.401997 -1.246988 1.015897 -0.401998 -1.246989 1.015899 -0.299414 -0.935914 0.761074 1.688159 -24.454166 -3.824195 2.078652 -9.225345 -6.437827 10.011680 1.353320 -6.672516 56.899301 36.450841 20.553801 39.439650 21.717550 42.601270 14.826889 22.034132 -12.247677 -9.293090 -5.031771 -6.260057 -59.882133 37.878259 -22.908594 -37.640247 29.421313 -44.727070 -20.715358 52.494922 -19.387796 -0.674580 -5.212060 -1.465383 1.914926 -4.291582 -9.781104 -1.116227 3.984832 2.053763 0.035201 -0.077729 -0.018534 -0.858797 -7.168844 1.959887 0.671903 -1.497509 -0.208767 -0.491772 3.574600 1.036309 -0.181790 -0.010776 0.001756 
9.642270 6.825394 83.088387 -5.235415 -1.463761 -107.535448 -0.865125 -2.814611 2.267768 -0.397366 -1.254161 1.039768 -0.397367 -1.254161 1.039771 -0.295879 -0.941300 0.778981 1.497756 -24.513511 -3.192698 1.895503 -9.333827 -5.352908 10.189200 0.936015 -6.480825 57.383766 36.229239 20.590377 39.208349 21.502537 42.233293 16.483101 21.745092 -12.791937 -9.395075 -4.966679 -6.115545 -60.564018 38.173046 -23.424272 -38.568722 30.379401 -45.037868 -16.394819 57.109490 -21.894638 -0.695650 -5.158363 -1.377698 1.931447 -4.485904 -9.672029 -1.172575 4.040995 2.016937 0.055987 -0.075766 -0.016802 -0.883434 -7.188112 1.949276 0.677005 -1.610119 -0.112842 -0.441872 3.643082 1.090749 -0.190157 -0.013151 0.000350 
